<svg width="85" height="47" viewBox="0 0 85 47" fill="none" xmlns="http://www.w3.org/2000/svg">
<path d="M0 12C0 5.37258 5.37258 0 12 0H85V46.4H12C5.37258 46.4 0 41.0274 0 34.4V12Z" fill="#74DEFF"/>
<path fill-rule="evenodd" clip-rule="evenodd" d="M29.2137 17.2377C29.8321 16.743 30.8346 16.743 31.4529 17.2377L43 26.4754L54.5471 17.2377C55.1654 16.743 56.1679 16.743 56.7863 17.2377C57.4046 17.7324 57.4046 18.5344 56.7863 19.029L44.1196 29.1624C43.5013 29.657 42.4987 29.657 41.8804 29.1624L29.2137 19.029C28.5954 18.5344 28.5954 17.7324 29.2137 17.2377Z" fill="black"/>
</svg>
