<svg width="85" height="47" viewBox="0 0 85 47" fill="none" xmlns="http://www.w3.org/2000/svg">
<path d="M0 0H73C79.6274 0 85 5.37258 85 12V34.4C85 41.0274 79.6274 46.4 73 46.4H0V0Z" fill="#FC9B55"/>
<path fill-rule="evenodd" clip-rule="evenodd" d="M38.1248 11.3333C32.4869 11.3333 27.9165 14.9896 27.9165 19.4999C27.9165 24.0102 32.4869 27.6666 38.1248 27.6666C40.4178 27.6666 42.5342 27.0618 44.2384 26.0407L54.5936 34.3249C55.1632 34.7805 56.0865 34.7805 56.656 34.3249C57.2255 33.8693 57.2255 33.1306 56.656 32.675L46.3008 24.3908C47.5772 23.0274 48.3332 21.3343 48.3332 19.4999C48.3332 14.9896 43.7627 11.3333 38.1248 11.3333ZM30.8332 19.4999C30.8332 16.2783 34.0978 13.6666 38.1248 13.6666C42.1519 13.6666 45.4165 16.2783 45.4165 19.4999C45.4165 22.7216 42.1519 25.3333 38.1248 25.3333C34.0978 25.3333 30.8332 22.7216 30.8332 19.4999Z" fill="black"/>
</svg>
