<svg width="35" height="35" viewBox="0 0 35 35" fill="none" xmlns="http://www.w3.org/2000/svg">
<path d="M18.9584 8.75002C18.9584 7.94461 18.3054 7.29169 17.5 7.29169C16.6946 7.29169 16.0417 7.94461 16.0417 8.75002V16.0417H8.75002C7.94461 16.0417 7.29169 16.6946 7.29169 17.5C7.29169 18.3054 7.94461 18.9584 8.75002 18.9584H16.0417V26.25C16.0417 27.0554 16.6946 27.7084 17.5 27.7084C18.3054 27.7084 18.9584 27.0554 18.9584 26.25V18.9584H26.25C27.0554 18.9584 27.7084 18.3054 27.7084 17.5C27.7084 16.6946 27.0554 16.0417 26.25 16.0417H18.9584V8.75002Z" fill="black"/>
</svg>
