<svg width="35" height="28" viewBox="0 0 35 28" fill="none" xmlns="http://www.w3.org/2000/svg">
<path fill-rule="evenodd" clip-rule="evenodd" d="M13.1248 2.33325C7.48693 2.33325 2.9165 5.98959 2.9165 10.4999C2.9165 15.0102 7.48693 18.6666 13.1248 18.6666C15.4178 18.6666 17.5342 18.0618 19.2384 17.0407L29.5936 25.3249C30.1632 25.7805 31.0865 25.7805 31.656 25.3249C32.2255 24.8693 32.2255 24.1306 31.656 23.675L21.3008 15.3908C22.5772 14.0274 23.3332 12.3343 23.3332 10.4999C23.3332 5.98959 18.7627 2.33325 13.1248 2.33325ZM5.83317 10.4999C5.83317 7.27826 9.09776 4.66659 13.1248 4.66659C17.1519 4.66659 20.4165 7.27826 20.4165 10.4999C20.4165 13.7216 17.1519 16.3333 13.1248 16.3333C9.09776 16.3333 5.83317 13.7216 5.83317 10.4999Z" fill="black"/>
</svg>
