<svg width="35" height="28" viewBox="0 0 35 28" fill="none" xmlns="http://www.w3.org/2000/svg">
<path fill-rule="evenodd" clip-rule="evenodd" d="M13.1251 2.33325C7.48717 2.33325 2.91675 5.98959 2.91675 10.4999C2.91675 15.0102 7.48717 18.6666 13.1251 18.6666C15.4181 18.6666 17.5345 18.0618 19.2387 17.0407L29.5939 25.3249C30.1634 25.7805 31.0868 25.7805 31.6563 25.3249C32.2258 24.8693 32.2258 24.1306 31.6563 23.675L21.3011 15.3908C22.5774 14.0274 23.3334 12.3343 23.3334 10.4999C23.3334 5.98959 18.763 2.33325 13.1251 2.33325ZM5.83341 10.4999C5.83341 7.27826 9.098 4.66659 13.1251 4.66659C17.1522 4.66659 20.4167 7.27826 20.4167 10.4999C20.4167 13.7216 17.1522 16.3333 13.1251 16.3333C9.098 16.3333 5.83341 13.7216 5.83341 10.4999Z" fill="black"/>
</svg>
