<svg width="55" height="47" viewBox="0 0 55 47" fill="none" xmlns="http://www.w3.org/2000/svg">
<path d="M16.9 13.931H38.1M16.9 21.6897H38.1M46.05 34.6207H39.3588C38.5638 34.6207 37.8019 34.9763 37.305 35.5905L29.5538 45.0302C28.4938 46.3233 26.4731 46.3233 25.4131 45.0302L17.6619 35.5905C17.165 34.9763 16.4031 34.6207 15.6081 34.6207H8.95C4.54438 34.6207 1 31.1616 1 26.8621V8.75862C1 4.45905 4.54438 1 8.95 1H46.05C50.4556 1 54 4.45905 54 8.75862V26.8621C54 31.1616 50.4556 34.6207 46.05 34.6207Z" stroke="black" stroke-width="1.5" stroke-miterlimit="10" stroke-linecap="round" stroke-linejoin="round"/>
</svg>
