<svg width="35" height="35" viewBox="0 0 35 35" fill="none" xmlns="http://www.w3.org/2000/svg">
<path fill-rule="evenodd" clip-rule="evenodd" d="M13.125 2.91666C7.48708 2.91666 2.91666 7.48708 2.91666 13.125C2.91666 18.7629 7.48708 23.3333 13.125 23.3333C15.418 23.3333 17.5344 22.5773 19.2386 21.301L29.5938 31.6562C30.1633 32.2257 31.0867 32.2257 31.6562 31.6562C32.2257 31.0867 32.2257 30.1633 31.6562 29.5938L21.301 19.2386C22.5773 17.5344 23.3333 15.418 23.3333 13.125C23.3333 7.48708 18.7629 2.91666 13.125 2.91666ZM5.83332 13.125C5.83332 9.09791 9.09791 5.83332 13.125 5.83332C17.1521 5.83332 20.4167 9.09791 20.4167 13.125C20.4167 17.1521 17.1521 20.4167 13.125 20.4167C9.09791 20.4167 5.83332 17.1521 5.83332 13.125Z" fill="black"/>
</svg>
