<svg width="52" height="47" viewBox="0 0 52 47" fill="none" xmlns="http://www.w3.org/2000/svg">
<path d="M16 13.931H36M16 21.6897H36M43.5 34.6207H37.1875C36.4375 34.6207 35.7187 34.9763 35.25 35.5905L27.9375 45.0302C26.9375 46.3233 25.0312 46.3233 24.0312 45.0302L16.7188 35.5905C16.25 34.9763 15.5312 34.6207 14.7812 34.6207H8.5C4.34375 34.6207 1 31.1616 1 26.8621V8.75862C1 4.45905 4.34375 1 8.5 1H43.5C47.6563 1 51 4.45905 51 8.75862V26.8621C51 31.1616 47.6563 34.6207 43.5 34.6207Z" stroke="black" stroke-width="1.5" stroke-miterlimit="10" stroke-linecap="round" stroke-linejoin="round"/>
</svg>
